<?xml version="1.0" encoding="us-ascii" standalone="no"?><svg xmlns="http://www.w3.org/2000/svg" xmlns:xlink="http://www.w3.org/1999/xlink" contentStyleType="text/css" height="170px" preserveAspectRatio="none" style="width:484px;height:170px;background:#FFFFFF;" version="1.1" viewBox="0 0 484 170" width="484px" zoomAndPan="magnify"><defs/><g><!--class Main--><g id="elem_Main"><rect codeLine="5" fill="#F1F1F1" height="48" id="Main" rx="2.5" ry="2.5" style="stroke:#181818;stroke-width:0.5;" width="62" x="124" y="7"/><ellipse cx="139" cy="23" fill="#ADD1B2" rx="11" ry="11" style="stroke:#181818;stroke-width:1.0;"/><path d="M141.7656,18.875 Q141.9219,18.6563 142.1094,18.5469 Q142.2969,18.4375 142.5156,18.4375 Q142.8906,18.4375 143.125,18.7031 Q143.3594,18.9531 143.3594,19.5625 L143.3594,21.0156 Q143.3594,21.625 143.125,21.8906 Q142.8906,22.1563 142.5156,22.1563 Q142.1719,22.1563 141.9688,21.9531 Q141.7656,21.7656 141.6563,21.25 Q141.6094,20.8906 141.4219,20.7031 Q141.0938,20.3281 140.4844,20.1094 Q139.875,19.8906 139.25,19.8906 Q138.4844,19.8906 137.8438,20.2188 Q137.2188,20.5469 136.7188,21.2969 Q136.2344,22.0469 136.2344,23.0781 L136.2344,24.1719 Q136.2344,25.4063 137.125,26.2344 Q138.0156,27.0469 139.6094,27.0469 Q140.5469,27.0469 141.2031,26.7969 Q141.5938,26.6406 142.0156,26.2031 Q142.2813,25.9375 142.4219,25.8594 Q142.5781,25.7813 142.7813,25.7813 Q143.1094,25.7813 143.3594,26.0469 Q143.625,26.2969 143.625,26.6406 Q143.625,26.9844 143.2813,27.3906 Q142.7813,27.9688 141.9844,28.2969 Q140.9063,28.75 139.6094,28.75 Q138.0938,28.75 136.8906,28.125 Q135.9063,27.625 135.2188,26.5625 Q134.5313,25.4844 134.5313,24.2031 L134.5313,23.0469 Q134.5313,21.7188 135.1406,20.5781 Q135.7656,19.4219 136.8594,18.8125 Q137.9531,18.1875 139.1875,18.1875 Q139.9219,18.1875 140.5625,18.3594 Q141.2188,18.5156 141.7656,18.875 Z " fill="#000000"/><text fill="#000000" font-family="sans-serif" font-size="14" lengthAdjust="spacing" textLength="30" x="153" y="28.7969">Main</text><line style="stroke:#181818;stroke-width:0.5;" x1="125" x2="185" y1="39" y2="39"/><line style="stroke:#181818;stroke-width:0.5;" x1="125" x2="185" y1="47" y2="47"/></g><!--class Quiz--><g id="elem_Quiz"><rect codeLine="6" fill="#F1F1F1" height="48" id="Quiz" rx="2.5" ry="2.5" style="stroke:#181818;stroke-width:0.5;" width="60" x="7" y="115"/><ellipse cx="22" cy="131" fill="#ADD1B2" rx="11" ry="11" style="stroke:#181818;stroke-width:1.0;"/><path d="M24.7656,126.875 Q24.9219,126.6563 25.1094,126.5469 Q25.2969,126.4375 25.5156,126.4375 Q25.8906,126.4375 26.125,126.7031 Q26.3594,126.9531 26.3594,127.5625 L26.3594,129.0156 Q26.3594,129.625 26.125,129.8906 Q25.8906,130.1563 25.5156,130.1563 Q25.1719,130.1563 24.9688,129.9531 Q24.7656,129.7656 24.6563,129.25 Q24.6094,128.8906 24.4219,128.7031 Q24.0938,128.3281 23.4844,128.1094 Q22.875,127.8906 22.25,127.8906 Q21.4844,127.8906 20.8438,128.2188 Q20.2188,128.5469 19.7188,129.2969 Q19.2344,130.0469 19.2344,131.0781 L19.2344,132.1719 Q19.2344,133.4063 20.125,134.2344 Q21.0156,135.0469 22.6094,135.0469 Q23.5469,135.0469 24.2031,134.7969 Q24.5938,134.6406 25.0156,134.2031 Q25.2813,133.9375 25.4219,133.8594 Q25.5781,133.7813 25.7813,133.7813 Q26.1094,133.7813 26.3594,134.0469 Q26.625,134.2969 26.625,134.6406 Q26.625,134.9844 26.2813,135.3906 Q25.7813,135.9688 24.9844,136.2969 Q23.9063,136.75 22.6094,136.75 Q21.0938,136.75 19.8906,136.125 Q18.9063,135.625 18.2188,134.5625 Q17.5313,133.4844 17.5313,132.2031 L17.5313,131.0469 Q17.5313,129.7188 18.1406,128.5781 Q18.7656,127.4219 19.8594,126.8125 Q20.9531,126.1875 22.1875,126.1875 Q22.9219,126.1875 23.5625,126.3594 Q24.2188,126.5156 24.7656,126.875 Z " fill="#000000"/><text fill="#000000" font-family="sans-serif" font-size="14" lengthAdjust="spacing" textLength="28" x="36" y="136.7969">Quiz</text><line style="stroke:#181818;stroke-width:0.5;" x1="8" x2="66" y1="147" y2="147"/><line style="stroke:#181818;stroke-width:0.5;" x1="8" x2="66" y1="155" y2="155"/></g><!--class Question--><g id="elem_Question"><rect codeLine="7" fill="#F1F1F1" height="48" id="Question" rx="2.5" ry="2.5" style="stroke:#181818;stroke-width:0.5;" width="89" x="102.5" y="115"/><ellipse cx="117.5" cy="131" fill="#ADD1B2" rx="11" ry="11" style="stroke:#181818;stroke-width:1.0;"/><path d="M120.2656,126.875 Q120.4219,126.6563 120.6094,126.5469 Q120.7969,126.4375 121.0156,126.4375 Q121.3906,126.4375 121.625,126.7031 Q121.8594,126.9531 121.8594,127.5625 L121.8594,129.0156 Q121.8594,129.625 121.625,129.8906 Q121.3906,130.1563 121.0156,130.1563 Q120.6719,130.1563 120.4688,129.9531 Q120.2656,129.7656 120.1563,129.25 Q120.1094,128.8906 119.9219,128.7031 Q119.5938,128.3281 118.9844,128.1094 Q118.375,127.8906 117.75,127.8906 Q116.9844,127.8906 116.3438,128.2188 Q115.7188,128.5469 115.2188,129.2969 Q114.7344,130.0469 114.7344,131.0781 L114.7344,132.1719 Q114.7344,133.4063 115.625,134.2344 Q116.5156,135.0469 118.1094,135.0469 Q119.0469,135.0469 119.7031,134.7969 Q120.0938,134.6406 120.5156,134.2031 Q120.7813,133.9375 120.9219,133.8594 Q121.0781,133.7813 121.2813,133.7813 Q121.6094,133.7813 121.8594,134.0469 Q122.125,134.2969 122.125,134.6406 Q122.125,134.9844 121.7813,135.3906 Q121.2813,135.9688 120.4844,136.2969 Q119.4063,136.75 118.1094,136.75 Q116.5938,136.75 115.3906,136.125 Q114.4063,135.625 113.7188,134.5625 Q113.0313,133.4844 113.0313,132.2031 L113.0313,131.0469 Q113.0313,129.7188 113.6406,128.5781 Q114.2656,127.4219 115.3594,126.8125 Q116.4531,126.1875 117.6875,126.1875 Q118.4219,126.1875 119.0625,126.3594 Q119.7188,126.5156 120.2656,126.875 Z " fill="#000000"/><text fill="#000000" font-family="sans-serif" font-size="14" lengthAdjust="spacing" textLength="57" x="131.5" y="136.7969">Question</text><line style="stroke:#181818;stroke-width:0.5;" x1="103.5" x2="190.5" y1="147" y2="147"/><line style="stroke:#181818;stroke-width:0.5;" x1="103.5" x2="190.5" y1="155" y2="155"/></g><!--class Highscore--><g id="elem_Highscore"><rect codeLine="8" fill="#F1F1F1" height="48" id="Highscore" rx="2.5" ry="2.5" style="stroke:#181818;stroke-width:0.5;" width="95" x="226.5" y="115"/><ellipse cx="241.5" cy="131" fill="#ADD1B2" rx="11" ry="11" style="stroke:#181818;stroke-width:1.0;"/><path d="M244.2656,126.875 Q244.4219,126.6563 244.6094,126.5469 Q244.7969,126.4375 245.0156,126.4375 Q245.3906,126.4375 245.625,126.7031 Q245.8594,126.9531 245.8594,127.5625 L245.8594,129.0156 Q245.8594,129.625 245.625,129.8906 Q245.3906,130.1563 245.0156,130.1563 Q244.6719,130.1563 244.4688,129.9531 Q244.2656,129.7656 244.1563,129.25 Q244.1094,128.8906 243.9219,128.7031 Q243.5938,128.3281 242.9844,128.1094 Q242.375,127.8906 241.75,127.8906 Q240.9844,127.8906 240.3438,128.2188 Q239.7188,128.5469 239.2188,129.2969 Q238.7344,130.0469 238.7344,131.0781 L238.7344,132.1719 Q238.7344,133.4063 239.625,134.2344 Q240.5156,135.0469 242.1094,135.0469 Q243.0469,135.0469 243.7031,134.7969 Q244.0938,134.6406 244.5156,134.2031 Q244.7813,133.9375 244.9219,133.8594 Q245.0781,133.7813 245.2813,133.7813 Q245.6094,133.7813 245.8594,134.0469 Q246.125,134.2969 246.125,134.6406 Q246.125,134.9844 245.7813,135.3906 Q245.2813,135.9688 244.4844,136.2969 Q243.4063,136.75 242.1094,136.75 Q240.5938,136.75 239.3906,136.125 Q238.4063,135.625 237.7188,134.5625 Q237.0313,133.4844 237.0313,132.2031 L237.0313,131.0469 Q237.0313,129.7188 237.6406,128.5781 Q238.2656,127.4219 239.3594,126.8125 Q240.4531,126.1875 241.6875,126.1875 Q242.4219,126.1875 243.0625,126.3594 Q243.7188,126.5156 244.2656,126.875 Z " fill="#000000"/><text fill="#000000" font-family="sans-serif" font-size="14" lengthAdjust="spacing" textLength="63" x="255.5" y="136.7969">Highscore</text><line style="stroke:#181818;stroke-width:0.5;" x1="227.5" x2="320.5" y1="147" y2="147"/><line style="stroke:#181818;stroke-width:0.5;" x1="227.5" x2="320.5" y1="155" y2="155"/></g><!--class HighscoreItem--><g id="elem_HighscoreItem"><rect codeLine="9" fill="#F1F1F1" height="48" id="HighscoreItem" rx="2.5" ry="2.5" style="stroke:#181818;stroke-width:0.5;" width="121" x="356.5" y="115"/><ellipse cx="371.5" cy="131" fill="#ADD1B2" rx="11" ry="11" style="stroke:#181818;stroke-width:1.0;"/><path d="M374.2656,126.875 Q374.4219,126.6563 374.6094,126.5469 Q374.7969,126.4375 375.0156,126.4375 Q375.3906,126.4375 375.625,126.7031 Q375.8594,126.9531 375.8594,127.5625 L375.8594,129.0156 Q375.8594,129.625 375.625,129.8906 Q375.3906,130.1563 375.0156,130.1563 Q374.6719,130.1563 374.4688,129.9531 Q374.2656,129.7656 374.1563,129.25 Q374.1094,128.8906 373.9219,128.7031 Q373.5938,128.3281 372.9844,128.1094 Q372.375,127.8906 371.75,127.8906 Q370.9844,127.8906 370.3438,128.2188 Q369.7188,128.5469 369.2188,129.2969 Q368.7344,130.0469 368.7344,131.0781 L368.7344,132.1719 Q368.7344,133.4063 369.625,134.2344 Q370.5156,135.0469 372.1094,135.0469 Q373.0469,135.0469 373.7031,134.7969 Q374.0938,134.6406 374.5156,134.2031 Q374.7813,133.9375 374.9219,133.8594 Q375.0781,133.7813 375.2813,133.7813 Q375.6094,133.7813 375.8594,134.0469 Q376.125,134.2969 376.125,134.6406 Q376.125,134.9844 375.7813,135.3906 Q375.2813,135.9688 374.4844,136.2969 Q373.4063,136.75 372.1094,136.75 Q370.5938,136.75 369.3906,136.125 Q368.4063,135.625 367.7188,134.5625 Q367.0313,133.4844 367.0313,132.2031 L367.0313,131.0469 Q367.0313,129.7188 367.6406,128.5781 Q368.2656,127.4219 369.3594,126.8125 Q370.4531,126.1875 371.6875,126.1875 Q372.4219,126.1875 373.0625,126.3594 Q373.7188,126.5156 374.2656,126.875 Z " fill="#000000"/><text fill="#000000" font-family="sans-serif" font-size="14" lengthAdjust="spacing" textLength="89" x="385.5" y="136.7969">HighscoreItem</text><line style="stroke:#181818;stroke-width:0.5;" x1="357.5" x2="476.5" y1="147" y2="147"/><line style="stroke:#181818;stroke-width:0.5;" x1="357.5" x2="476.5" y1="155" y2="155"/></g><!--reverse link Main to Quiz--><g id="link_Main_Quiz"><path codeLine="1" d="M120.4728,63.019 C100.8128,80.679 82.71,96.94 62.96,114.68 " fill="none" id="Main-backto-Quiz" style="stroke:#181818;stroke-width:1.0;"/><polygon fill="none" points="129.4,55,122.2634,56.0338,120.4728,63.019,127.6094,61.9853,129.4,55" style="stroke:#181818;stroke-width:1.0;"/></g><!--reverse link Quiz to Question--><g id="link_Quiz_Question"><path codeLine="2" d="M79.08,139 C90.84,139 90.6,139 102.36,139 " fill="none" id="Quiz-backto-Question" style="stroke:#181818;stroke-width:1.0;"/><polygon fill="none" points="67.08,139,73.08,143,79.08,139,73.08,135,67.08,139" style="stroke:#181818;stroke-width:1.0;"/></g><!--reverse link Main to Highscore--><g id="link_Main_Highscore"><path codeLine="3" d="M189.7794,62.983 C209.5994,80.643 227.91,96.94 247.82,114.68 " fill="none" id="Main-backto-Highscore" style="stroke:#181818;stroke-width:1.0;"/><polygon fill="none" points="180.82,55,182.6387,61.978,189.7794,62.983,187.9607,56.005,180.82,55" style="stroke:#181818;stroke-width:1.0;"/></g><!--reverse link Highscore to HighscoreItem--><g id="link_Highscore_HighscoreItem"><path codeLine="4" d="M333.76,139 C345.29,139 344.83,139 356.36,139 " fill="none" id="Highscore-backto-HighscoreItem" style="stroke:#181818;stroke-width:1.0;"/><polygon fill="#181818" points="321.76,139,327.76,143,333.76,139,327.76,135,321.76,139" style="stroke:#181818;stroke-width:1.0;"/></g><!--SRC=[yqtCp5F8rzLL22pDhE824K0Ua9DQN9APdyVb2vFso4pFA4xEBqhbWhCKj924FKjISxcISnABYnN0UgfheJomaKWyYC484OHnc48WGu720000]--></g></svg>