<?xml version="1.0" encoding="us-ascii" standalone="no"?><svg xmlns="http://www.w3.org/2000/svg" xmlns:xlink="http://www.w3.org/1999/xlink" contentStyleType="text/css" height="753px" preserveAspectRatio="none" style="width:1246px;height:753px;background:#FFFFFF;" version="1.1" viewBox="0 0 1246 753" width="1246px" zoomAndPan="magnify"><defs/><g><!--class Main--><g id="elem_Main"><rect codeLine="5" fill="#F1F1F1" height="250.2109" id="Main" rx="2.5" ry="2.5" style="stroke:#181818;stroke-width:0.5;" width="269" x="325.5" y="7"/><ellipse cx="440.75" cy="23" fill="#ADD1B2" rx="11" ry="11" style="stroke:#181818;stroke-width:1.0;"/><path d="M443.5156,18.875 Q443.6719,18.6563 443.8594,18.5469 Q444.0469,18.4375 444.2656,18.4375 Q444.6406,18.4375 444.875,18.7031 Q445.1094,18.9531 445.1094,19.5625 L445.1094,21.0156 Q445.1094,21.625 444.875,21.8906 Q444.6406,22.1563 444.2656,22.1563 Q443.9219,22.1563 443.7188,21.9531 Q443.5156,21.7656 443.4063,21.25 Q443.3594,20.8906 443.1719,20.7031 Q442.8438,20.3281 442.2344,20.1094 Q441.625,19.8906 441,19.8906 Q440.2344,19.8906 439.5938,20.2188 Q438.9688,20.5469 438.4688,21.2969 Q437.9844,22.0469 437.9844,23.0781 L437.9844,24.1719 Q437.9844,25.4063 438.875,26.2344 Q439.7656,27.0469 441.3594,27.0469 Q442.2969,27.0469 442.9531,26.7969 Q443.3438,26.6406 443.7656,26.2031 Q444.0313,25.9375 444.1719,25.8594 Q444.3281,25.7813 444.5313,25.7813 Q444.8594,25.7813 445.1094,26.0469 Q445.375,26.2969 445.375,26.6406 Q445.375,26.9844 445.0313,27.3906 Q444.5313,27.9688 443.7344,28.2969 Q442.6563,28.75 441.3594,28.75 Q439.8438,28.75 438.6406,28.125 Q437.6563,27.625 436.9688,26.5625 Q436.2813,25.4844 436.2813,24.2031 L436.2813,23.0469 Q436.2813,21.7188 436.8906,20.5781 Q437.5156,19.4219 438.6094,18.8125 Q439.7031,18.1875 440.9375,18.1875 Q441.6719,18.1875 442.3125,18.3594 Q442.9688,18.5156 443.5156,18.875 Z " fill="#000000"/><text fill="#000000" font-family="sans-serif" font-size="14" lengthAdjust="spacing" textLength="30" x="461.25" y="28.7969">Main</text><line style="stroke:#181818;stroke-width:0.5;" x1="326.5" x2="593.5" y1="39" y2="39"/><rect fill="none" height="6" style="stroke:#C82930;stroke-width:1.0;" width="6" x="333.5" y="50.8105"/><text fill="#000000" font-family="sans-serif" font-size="14" lengthAdjust="spacing" text-decoration="underline" textLength="74" x="345.5" y="58.1074">Menu menu</text><ellipse cx="336.5" cy="72.4316" fill="none" rx="3" ry="3" style="stroke:#038048;stroke-width:1.0;"/><text fill="#000000" font-family="sans-serif" font-size="14" lengthAdjust="spacing" text-decoration="underline" textLength="129" x="345.5" y="76.7285">Highscore highscore</text><ellipse cx="336.5" cy="91.0527" fill="none" rx="3" ry="3" style="stroke:#038048;stroke-width:1.0;"/><text fill="#000000" font-family="sans-serif" font-size="14" lengthAdjust="spacing" text-decoration="underline" textLength="57" x="345.5" y="95.3496">Quiz quiz</text><rect fill="none" height="6" style="stroke:#C82930;stroke-width:1.0;" width="6" x="333.5" y="106.6738"/><text fill="#000000" font-family="sans-serif" font-size="14" lengthAdjust="spacing" text-decoration="underline" textLength="111" x="345.5" y="113.9707">String gameMode</text><line style="stroke:#181818;stroke-width:1.0;" x1="326.5" x2="593.5" y1="121.4844" y2="121.4844"/><ellipse cx="336.5" cy="158.916" fill="#84BE84" rx="3" ry="3" style="stroke:#038048;stroke-width:1.0;"/><text fill="#000000" font-family="sans-serif" font-size="14" lengthAdjust="spacing" text-decoration="underline" textLength="144" x="345.5" y="163.2129">String getGameMode()</text><line style="stroke:#181818;stroke-width:1.0;stroke-dasharray:1.0,2.0;" x1="326.5" x2="398" y1="138.7949" y2="138.7949"/><text fill="#000000" font-family="sans-serif" font-size="14" lengthAdjust="spacing" textLength="124" x="398" y="144.0918">Getter-Funktioenen</text><line style="stroke:#181818;stroke-width:1.0;stroke-dasharray:1.0,2.0;" x1="522" x2="593.5" y1="138.7949" y2="138.7949"/><ellipse cx="336.5" cy="200.1582" fill="#84BE84" rx="3" ry="3" style="stroke:#038048;stroke-width:1.0;"/><text fill="#000000" font-family="sans-serif" font-size="14" lengthAdjust="spacing" text-decoration="underline" textLength="243" x="345.5" y="204.4551">void setGameMode(String gameMode)</text><line style="stroke:#181818;stroke-width:1.0;stroke-dasharray:1.0,2.0;" x1="326.5" x2="399" y1="180.0371" y2="180.0371"/><text fill="#000000" font-family="sans-serif" font-size="14" lengthAdjust="spacing" textLength="122" x="399" y="185.334">Setter-Funktioenen</text><line style="stroke:#181818;stroke-width:1.0;stroke-dasharray:1.0,2.0;" x1="521" x2="593.5" y1="180.0371" y2="180.0371"/><line style="stroke:#181818;stroke-width:1.0;stroke-dasharray:1.0,2.0;" x1="326.5" x2="593.5" y1="211.9688" y2="211.9688"/><ellipse cx="336.5" cy="226.7793" fill="#84BE84" rx="3" ry="3" style="stroke:#038048;stroke-width:1.0;"/><text fill="#000000" font-family="sans-serif" font-size="14" lengthAdjust="spacing" text-decoration="underline" textLength="147" x="345.5" y="231.0762">void main(String[] args)</text><ellipse cx="336.5" cy="245.4004" fill="#84BE84" rx="3" ry="3" style="stroke:#038048;stroke-width:1.0;"/><text fill="#000000" font-family="sans-serif" font-size="14" lengthAdjust="spacing" text-decoration="underline" textLength="114" x="345.5" y="249.6973">void schowMenu()</text></g><!--class Quiz--><g id="elem_Quiz"><rect codeLine="19" fill="#F1F1F1" height="421.8008" id="Quiz" rx="2.5" ry="2.5" style="stroke:#181818;stroke-width:0.5;" width="262" x="7" y="325"/><ellipse cx="119.75" cy="341" fill="#ADD1B2" rx="11" ry="11" style="stroke:#181818;stroke-width:1.0;"/><path d="M122.5156,336.875 Q122.6719,336.6563 122.8594,336.5469 Q123.0469,336.4375 123.2656,336.4375 Q123.6406,336.4375 123.875,336.7031 Q124.1094,336.9531 124.1094,337.5625 L124.1094,339.0156 Q124.1094,339.625 123.875,339.8906 Q123.6406,340.1563 123.2656,340.1563 Q122.9219,340.1563 122.7188,339.9531 Q122.5156,339.7656 122.4063,339.25 Q122.3594,338.8906 122.1719,338.7031 Q121.8438,338.3281 121.2344,338.1094 Q120.625,337.8906 120,337.8906 Q119.2344,337.8906 118.5938,338.2188 Q117.9688,338.5469 117.4688,339.2969 Q116.9844,340.0469 116.9844,341.0781 L116.9844,342.1719 Q116.9844,343.4063 117.875,344.2344 Q118.7656,345.0469 120.3594,345.0469 Q121.2969,345.0469 121.9531,344.7969 Q122.3438,344.6406 122.7656,344.2031 Q123.0313,343.9375 123.1719,343.8594 Q123.3281,343.7813 123.5313,343.7813 Q123.8594,343.7813 124.1094,344.0469 Q124.375,344.2969 124.375,344.6406 Q124.375,344.9844 124.0313,345.3906 Q123.5313,345.9688 122.7344,346.2969 Q121.6563,346.75 120.3594,346.75 Q118.8438,346.75 117.6406,346.125 Q116.6563,345.625 115.9688,344.5625 Q115.2813,343.4844 115.2813,342.2031 L115.2813,341.0469 Q115.2813,339.7188 115.8906,338.5781 Q116.5156,337.4219 117.6094,336.8125 Q118.7031,336.1875 119.9375,336.1875 Q120.6719,336.1875 121.3125,336.3594 Q121.9688,336.5156 122.5156,336.875 Z " fill="#000000"/><text fill="#000000" font-family="sans-serif" font-size="14" lengthAdjust="spacing" textLength="28" x="140.25" y="346.7969">Quiz</text><line style="stroke:#181818;stroke-width:0.5;" x1="8" x2="268" y1="357" y2="357"/><rect fill="none" height="6" style="stroke:#C82930;stroke-width:1.0;" width="6" x="15" y="368.8105"/><text fill="#000000" font-family="sans-serif" font-size="14" lengthAdjust="spacing" text-decoration="underline" textLength="209" x="27" y="376.1074">ArrayList&lt;Question&gt; questionList</text><ellipse cx="18" cy="390.4316" fill="none" rx="3" ry="3" style="stroke:#038048;stroke-width:1.0;"/><text fill="#000000" font-family="sans-serif" font-size="14" lengthAdjust="spacing" text-decoration="underline" textLength="139" x="27" y="394.7285">QuizFrame quizFrame</text><rect fill="none" height="6" style="stroke:#C82930;stroke-width:1.0;" width="6" x="15" y="406.0527"/><text fill="#000000" font-family="sans-serif" font-size="14" lengthAdjust="spacing" text-decoration="underline" textLength="109" x="27" y="413.3496">int QuestionIndex</text><rect fill="none" height="6" style="stroke:#C82930;stroke-width:1.0;" width="6" x="15" y="424.6738"/><text fill="#000000" font-family="sans-serif" font-size="14" lengthAdjust="spacing" textLength="86" x="27" y="431.9707">boolean joker</text><rect fill="none" height="6" style="stroke:#C82930;stroke-width:1.0;" width="6" x="15" y="443.2949"/><text fill="#000000" font-family="sans-serif" font-size="14" lengthAdjust="spacing" textLength="54" x="27" y="450.5918">int score</text><line style="stroke:#181818;stroke-width:1.0;" x1="8" x2="268" y1="458.1055" y2="458.1055"/><ellipse cx="18" cy="495.5371" fill="#84BE84" rx="3" ry="3" style="stroke:#038048;stroke-width:1.0;"/><text fill="#000000" font-family="sans-serif" font-size="14" lengthAdjust="spacing" textLength="149" x="27" y="499.834">Quiz(String gameMode)</text><line style="stroke:#181818;stroke-width:1.0;stroke-dasharray:1.0,2.0;" x1="8" x2="101.5" y1="475.416" y2="475.416"/><text fill="#000000" font-family="sans-serif" font-size="14" lengthAdjust="spacing" textLength="73" x="101.5" y="480.7129">Konstruktor</text><line style="stroke:#181818;stroke-width:1.0;stroke-dasharray:1.0,2.0;" x1="174.5" x2="268" y1="475.416" y2="475.416"/><ellipse cx="18" cy="536.7793" fill="#84BE84" rx="3" ry="3" style="stroke:#038048;stroke-width:1.0;"/><text fill="#000000" font-family="sans-serif" font-size="14" lengthAdjust="spacing" textLength="119" x="27" y="541.0762">boolean getJoker()</text><line style="stroke:#181818;stroke-width:1.0;stroke-dasharray:1.0,2.0;" x1="8" x2="80" y1="516.6582" y2="516.6582"/><text fill="#000000" font-family="sans-serif" font-size="14" lengthAdjust="spacing" textLength="116" x="80" y="521.9551">Getter-Funktionen</text><line style="stroke:#181818;stroke-width:1.0;stroke-dasharray:1.0,2.0;" x1="196" x2="268" y1="516.6582" y2="516.6582"/><ellipse cx="18" cy="578.0215" fill="#84BE84" rx="3" ry="3" style="stroke:#038048;stroke-width:1.0;"/><text fill="#000000" font-family="sans-serif" font-size="14" lengthAdjust="spacing" textLength="179" x="27" y="582.3184">void setJoker(boolean joker)</text><ellipse cx="18" cy="596.6426" fill="#84BE84" rx="3" ry="3" style="stroke:#038048;stroke-width:1.0;"/><text fill="#000000" font-family="sans-serif" font-size="14" lengthAdjust="spacing" textLength="101" x="27" y="600.9395">void addScore()</text><ellipse cx="18" cy="615.2637" fill="#84BE84" rx="3" ry="3" style="stroke:#038048;stroke-width:1.0;"/><text fill="#000000" font-family="sans-serif" font-size="14" lengthAdjust="spacing" textLength="236" x="27" y="619.5605">void addQuestion(Question question)</text><line style="stroke:#181818;stroke-width:1.0;stroke-dasharray:1.0,2.0;" x1="8" x2="81" y1="557.9004" y2="557.9004"/><text fill="#000000" font-family="sans-serif" font-size="14" lengthAdjust="spacing" textLength="114" x="81" y="563.1973">Setter-Funktionen</text><line style="stroke:#181818;stroke-width:1.0;stroke-dasharray:1.0,2.0;" x1="195" x2="268" y1="557.9004" y2="557.9004"/><line style="stroke:#181818;stroke-width:1.0;stroke-dasharray:1.0,2.0;" x1="8" x2="268" y1="627.0742" y2="627.0742"/><ellipse cx="18" cy="641.8848" fill="#84BE84" rx="3" ry="3" style="stroke:#038048;stroke-width:1.0;"/><text fill="#000000" font-family="sans-serif" font-size="14" lengthAdjust="spacing" textLength="68" x="27" y="646.1816">void start()</text><ellipse cx="18" cy="660.5059" fill="#84BE84" rx="3" ry="3" style="stroke:#038048;stroke-width:1.0;"/><text fill="#000000" font-family="sans-serif" font-size="14" lengthAdjust="spacing" textLength="123" x="27" y="664.8027">void nextQuestion()</text><ellipse cx="18" cy="679.127" fill="#84BE84" rx="3" ry="3" style="stroke:#038048;stroke-width:1.0;"/><text fill="#000000" font-family="sans-serif" font-size="14" lengthAdjust="spacing" textLength="73" x="27" y="683.4238">void finish()</text><rect fill="#F24D5C" height="6" style="stroke:#C82930;stroke-width:1.0;" width="6" x="15" y="694.748"/><text fill="#000000" font-family="sans-serif" font-size="14" lengthAdjust="spacing" textLength="146" x="27" y="702.0449">void shuffleQuestions()</text><rect fill="#F24D5C" height="6" style="stroke:#C82930;stroke-width:1.0;" width="6" x="15" y="713.3691"/><text fill="#000000" font-family="sans-serif" font-size="14" lengthAdjust="spacing" textLength="193" x="27" y="720.666">void loadQuestionsFromJson()</text><rect fill="#F24D5C" height="6" style="stroke:#C82930;stroke-width:1.0;" width="6" x="15" y="731.9902"/><text fill="#000000" font-family="sans-serif" font-size="14" lengthAdjust="spacing" textLength="180" x="27" y="739.2871">void saveQuestionsToJson()</text></g><!--class Question--><g id="elem_Question"><rect codeLine="42" fill="#F1F1F1" height="339.3164" id="Question" rx="2.5" ry="2.5" style="stroke:#181818;stroke-width:0.5;" width="279" x="312.5" y="366"/><ellipse cx="419.25" cy="382" fill="#ADD1B2" rx="11" ry="11" style="stroke:#181818;stroke-width:1.0;"/><path d="M422.0156,377.875 Q422.1719,377.6563 422.3594,377.5469 Q422.5469,377.4375 422.7656,377.4375 Q423.1406,377.4375 423.375,377.7031 Q423.6094,377.9531 423.6094,378.5625 L423.6094,380.0156 Q423.6094,380.625 423.375,380.8906 Q423.1406,381.1563 422.7656,381.1563 Q422.4219,381.1563 422.2188,380.9531 Q422.0156,380.7656 421.9063,380.25 Q421.8594,379.8906 421.6719,379.7031 Q421.3438,379.3281 420.7344,379.1094 Q420.125,378.8906 419.5,378.8906 Q418.7344,378.8906 418.0938,379.2188 Q417.4688,379.5469 416.9688,380.2969 Q416.4844,381.0469 416.4844,382.0781 L416.4844,383.1719 Q416.4844,384.4063 417.375,385.2344 Q418.2656,386.0469 419.8594,386.0469 Q420.7969,386.0469 421.4531,385.7969 Q421.8438,385.6406 422.2656,385.2031 Q422.5313,384.9375 422.6719,384.8594 Q422.8281,384.7813 423.0313,384.7813 Q423.3594,384.7813 423.6094,385.0469 Q423.875,385.2969 423.875,385.6406 Q423.875,385.9844 423.5313,386.3906 Q423.0313,386.9688 422.2344,387.2969 Q421.1563,387.75 419.8594,387.75 Q418.3438,387.75 417.1406,387.125 Q416.1563,386.625 415.4688,385.5625 Q414.7813,384.4844 414.7813,383.2031 L414.7813,382.0469 Q414.7813,380.7188 415.3906,379.5781 Q416.0156,378.4219 417.1094,377.8125 Q418.2031,377.1875 419.4375,377.1875 Q420.1719,377.1875 420.8125,377.3594 Q421.4688,377.5156 422.0156,377.875 Z " fill="#000000"/><text fill="#000000" font-family="sans-serif" font-size="14" lengthAdjust="spacing" textLength="57" x="439.75" y="387.7969">Question</text><line style="stroke:#181818;stroke-width:0.5;" x1="313.5" x2="590.5" y1="398" y2="398"/><rect fill="none" height="6" style="stroke:#C82930;stroke-width:1.0;" width="6" x="320.5" y="409.8105"/><text fill="#000000" font-family="sans-serif" font-size="14" lengthAdjust="spacing" textLength="95" x="332.5" y="417.1074">String question</text><rect fill="none" height="6" style="stroke:#C82930;stroke-width:1.0;" width="6" x="320.5" y="428.4316"/><text fill="#000000" font-family="sans-serif" font-size="14" lengthAdjust="spacing" textLength="115" x="332.5" y="435.7285">String rightAnswer</text><rect fill="none" height="6" style="stroke:#C82930;stroke-width:1.0;" width="6" x="320.5" y="447.0527"/><text fill="#000000" font-family="sans-serif" font-size="14" lengthAdjust="spacing" textLength="116" x="332.5" y="454.3496">String[] answerList</text><line style="stroke:#181818;stroke-width:1.0;" x1="313.5" x2="590.5" y1="461.8633" y2="461.8633"/><ellipse cx="323.5" cy="499.2949" fill="#84BE84" rx="3" ry="3" style="stroke:#038048;stroke-width:1.0;"/><text fill="#000000" font-family="sans-serif" font-size="14" lengthAdjust="spacing" textLength="161" x="332.5" y="503.5918">Question(String question,</text><text fill="#000000" font-family="sans-serif" font-size="14" lengthAdjust="spacing" textLength="119" x="332.5" y="522.2129">String rightAnswer,</text><text fill="#000000" font-family="sans-serif" font-size="14" lengthAdjust="spacing" textLength="121" x="332.5" y="540.834">String[] answerList)</text><line style="stroke:#181818;stroke-width:1.0;stroke-dasharray:1.0,2.0;" x1="313.5" x2="415.5" y1="479.1738" y2="479.1738"/><text fill="#000000" font-family="sans-serif" font-size="14" lengthAdjust="spacing" textLength="73" x="415.5" y="484.4707">Konstruktor</text><line style="stroke:#181818;stroke-width:1.0;stroke-dasharray:1.0,2.0;" x1="488.5" x2="590.5" y1="479.1738" y2="479.1738"/><ellipse cx="323.5" cy="577.7793" fill="#84BE84" rx="3" ry="3" style="stroke:#038048;stroke-width:1.0;"/><text fill="#000000" font-family="sans-serif" font-size="14" lengthAdjust="spacing" textLength="128" x="332.5" y="582.0762">String getQuestion()</text><ellipse cx="323.5" cy="596.4004" fill="#84BE84" rx="3" ry="3" style="stroke:#038048;stroke-width:1.0;"/><text fill="#000000" font-family="sans-serif" font-size="14" lengthAdjust="spacing" textLength="150" x="332.5" y="600.6973">String getRightAnswer()</text><ellipse cx="323.5" cy="615.0215" fill="#84BE84" rx="3" ry="3" style="stroke:#038048;stroke-width:1.0;"/><text fill="#000000" font-family="sans-serif" font-size="14" lengthAdjust="spacing" textLength="147" x="332.5" y="619.3184">String[] getAnswerList()</text><line style="stroke:#181818;stroke-width:1.0;stroke-dasharray:1.0,2.0;" x1="313.5" x2="394" y1="557.6582" y2="557.6582"/><text fill="#000000" font-family="sans-serif" font-size="14" lengthAdjust="spacing" textLength="116" x="394" y="562.9551">Getter-Funktionen</text><line style="stroke:#181818;stroke-width:1.0;stroke-dasharray:1.0,2.0;" x1="510" x2="590.5" y1="557.6582" y2="557.6582"/><ellipse cx="323.5" cy="656.2637" fill="#84BE84" rx="3" ry="3" style="stroke:#038048;stroke-width:1.0;"/><text fill="#000000" font-family="sans-serif" font-size="14" lengthAdjust="spacing" textLength="211" x="332.5" y="660.5605">void setQuestion(String question)</text><ellipse cx="323.5" cy="674.8848" fill="#84BE84" rx="3" ry="3" style="stroke:#038048;stroke-width:1.0;"/><text fill="#000000" font-family="sans-serif" font-size="14" lengthAdjust="spacing" textLength="253" x="332.5" y="679.1816">void setRightAnswer(String rightAnswer)</text><ellipse cx="323.5" cy="693.5059" fill="#84BE84" rx="3" ry="3" style="stroke:#038048;stroke-width:1.0;"/><text fill="#000000" font-family="sans-serif" font-size="14" lengthAdjust="spacing" textLength="243" x="332.5" y="697.8027">void setAnswerList(String[] answerList)</text><line style="stroke:#181818;stroke-width:1.0;stroke-dasharray:1.0,2.0;" x1="313.5" x2="395" y1="636.1426" y2="636.1426"/><text fill="#000000" font-family="sans-serif" font-size="14" lengthAdjust="spacing" textLength="114" x="395" y="641.4395">Setter-Funktionen</text><line style="stroke:#181818;stroke-width:1.0;stroke-dasharray:1.0,2.0;" x1="509" x2="590.5" y1="636.1426" y2="636.1426"/></g><!--class Highscore--><g id="elem_Highscore"><rect codeLine="60" fill="#F1F1F1" height="190.3477" id="Highscore" rx="2.5" ry="2.5" style="stroke:#181818;stroke-width:0.5;" width="298" x="635" y="440.5"/><ellipse cx="748.25" cy="456.5" fill="#ADD1B2" rx="11" ry="11" style="stroke:#181818;stroke-width:1.0;"/><path d="M751.0156,452.375 Q751.1719,452.1563 751.3594,452.0469 Q751.5469,451.9375 751.7656,451.9375 Q752.1406,451.9375 752.375,452.2031 Q752.6094,452.4531 752.6094,453.0625 L752.6094,454.5156 Q752.6094,455.125 752.375,455.3906 Q752.1406,455.6563 751.7656,455.6563 Q751.4219,455.6563 751.2188,455.4531 Q751.0156,455.2656 750.9063,454.75 Q750.8594,454.3906 750.6719,454.2031 Q750.3438,453.8281 749.7344,453.6094 Q749.125,453.3906 748.5,453.3906 Q747.7344,453.3906 747.0938,453.7188 Q746.4688,454.0469 745.9688,454.7969 Q745.4844,455.5469 745.4844,456.5781 L745.4844,457.6719 Q745.4844,458.9063 746.375,459.7344 Q747.2656,460.5469 748.8594,460.5469 Q749.7969,460.5469 750.4531,460.2969 Q750.8438,460.1406 751.2656,459.7031 Q751.5313,459.4375 751.6719,459.3594 Q751.8281,459.2813 752.0313,459.2813 Q752.3594,459.2813 752.6094,459.5469 Q752.875,459.7969 752.875,460.1406 Q752.875,460.4844 752.5313,460.8906 Q752.0313,461.4688 751.2344,461.7969 Q750.1563,462.25 748.8594,462.25 Q747.3438,462.25 746.1406,461.625 Q745.1563,461.125 744.4688,460.0625 Q743.7813,458.9844 743.7813,457.7031 L743.7813,456.5469 Q743.7813,455.2188 744.3906,454.0781 Q745.0156,452.9219 746.1094,452.3125 Q747.2031,451.6875 748.4375,451.6875 Q749.1719,451.6875 749.8125,451.8594 Q750.4688,452.0156 751.0156,452.375 Z " fill="#000000"/><text fill="#000000" font-family="sans-serif" font-size="14" lengthAdjust="spacing" textLength="63" x="768.75" y="462.2969">Highscore</text><line style="stroke:#181818;stroke-width:0.5;" x1="636" x2="932" y1="472.5" y2="472.5"/><rect fill="none" height="6" style="stroke:#C82930;stroke-width:1.0;" width="6" x="643" y="484.3105"/><text fill="#000000" font-family="sans-serif" font-size="14" lengthAdjust="spacing" textLength="185" x="655" y="491.6074">HighscoreItem[] highscoreList</text><line style="stroke:#181818;stroke-width:1.0;" x1="636" x2="932" y1="499.1211" y2="499.1211"/><ellipse cx="646" cy="536.5527" fill="#84BE84" rx="3" ry="3" style="stroke:#038048;stroke-width:1.0;"/><text fill="#000000" font-family="sans-serif" font-size="14" lengthAdjust="spacing" textLength="73" x="655" y="540.8496">Highscore()</text><line style="stroke:#181818;stroke-width:1.0;stroke-dasharray:1.0,2.0;" x1="636" x2="747.5" y1="516.4316" y2="516.4316"/><text fill="#000000" font-family="sans-serif" font-size="14" lengthAdjust="spacing" textLength="73" x="747.5" y="521.7285">Konstruktor</text><line style="stroke:#181818;stroke-width:1.0;stroke-dasharray:1.0,2.0;" x1="820.5" x2="932" y1="516.4316" y2="516.4316"/><line style="stroke:#181818;stroke-width:1.0;stroke-dasharray:1.0,2.0;" x1="636" x2="932" y1="548.3633" y2="548.3633"/><ellipse cx="646" cy="563.1738" fill="#84BE84" rx="3" ry="3" style="stroke:#038048;stroke-width:1.0;"/><text fill="#000000" font-family="sans-serif" font-size="14" lengthAdjust="spacing" textLength="272" x="655" y="567.4707">void addHighscoreItem(HighscoreItem item)</text><ellipse cx="646" cy="581.7949" fill="#84BE84" rx="3" ry="3" style="stroke:#038048;stroke-width:1.0;"/><text fill="#000000" font-family="sans-serif" font-size="14" lengthAdjust="spacing" textLength="135" x="655" y="586.0918">void showHighscore()</text><ellipse cx="646" cy="600.416" fill="#84BE84" rx="3" ry="3" style="stroke:#038048;stroke-width:1.0;"/><text fill="#000000" font-family="sans-serif" font-size="14" lengthAdjust="spacing" textLength="195" x="655" y="604.7129">void saveHighscoreFromJson()</text><ellipse cx="646" cy="619.0371" fill="#84BE84" rx="3" ry="3" style="stroke:#038048;stroke-width:1.0;"/><text fill="#000000" font-family="sans-serif" font-size="14" lengthAdjust="spacing" textLength="192" x="655" y="623.334">void loadHighscoreFromJson()</text></g><!--class HighscoreItem--><g id="elem_HighscoreItem"><rect codeLine="71" fill="#F1F1F1" height="246.2109" id="HighscoreItem" rx="2.5" ry="2.5" style="stroke:#181818;stroke-width:0.5;" width="263" x="976.5" y="412.5"/><ellipse cx="1059.25" cy="428.5" fill="#ADD1B2" rx="11" ry="11" style="stroke:#181818;stroke-width:1.0;"/><path d="M1062.0156,424.375 Q1062.1719,424.1563 1062.3594,424.0469 Q1062.5469,423.9375 1062.7656,423.9375 Q1063.1406,423.9375 1063.375,424.2031 Q1063.6094,424.4531 1063.6094,425.0625 L1063.6094,426.5156 Q1063.6094,427.125 1063.375,427.3906 Q1063.1406,427.6563 1062.7656,427.6563 Q1062.4219,427.6563 1062.2188,427.4531 Q1062.0156,427.2656 1061.9063,426.75 Q1061.8594,426.3906 1061.6719,426.2031 Q1061.3438,425.8281 1060.7344,425.6094 Q1060.125,425.3906 1059.5,425.3906 Q1058.7344,425.3906 1058.0938,425.7188 Q1057.4688,426.0469 1056.9688,426.7969 Q1056.4844,427.5469 1056.4844,428.5781 L1056.4844,429.6719 Q1056.4844,430.9063 1057.375,431.7344 Q1058.2656,432.5469 1059.8594,432.5469 Q1060.7969,432.5469 1061.4531,432.2969 Q1061.8438,432.1406 1062.2656,431.7031 Q1062.5313,431.4375 1062.6719,431.3594 Q1062.8281,431.2813 1063.0313,431.2813 Q1063.3594,431.2813 1063.6094,431.5469 Q1063.875,431.7969 1063.875,432.1406 Q1063.875,432.4844 1063.5313,432.8906 Q1063.0313,433.4688 1062.2344,433.7969 Q1061.1563,434.25 1059.8594,434.25 Q1058.3438,434.25 1057.1406,433.625 Q1056.1563,433.125 1055.4688,432.0625 Q1054.7813,430.9844 1054.7813,429.7031 L1054.7813,428.5469 Q1054.7813,427.2188 1055.3906,426.0781 Q1056.0156,424.9219 1057.1094,424.3125 Q1058.2031,423.6875 1059.4375,423.6875 Q1060.1719,423.6875 1060.8125,423.8594 Q1061.4688,424.0156 1062.0156,424.375 Z " fill="#000000"/><text fill="#000000" font-family="sans-serif" font-size="14" lengthAdjust="spacing" textLength="89" x="1079.75" y="434.2969">HighscoreItem</text><line style="stroke:#181818;stroke-width:0.5;" x1="977.5" x2="1238.5" y1="444.5" y2="444.5"/><rect fill="none" height="6" style="stroke:#C82930;stroke-width:1.0;" width="6" x="984.5" y="456.3105"/><text fill="#000000" font-family="sans-serif" font-size="14" lengthAdjust="spacing" textLength="76" x="996.5" y="463.6074">String name</text><rect fill="none" height="6" style="stroke:#C82930;stroke-width:1.0;" width="6" x="984.5" y="474.9316"/><text fill="#000000" font-family="sans-serif" font-size="14" lengthAdjust="spacing" textLength="54" x="996.5" y="482.2285">int score</text><line style="stroke:#181818;stroke-width:1.0;" x1="977.5" x2="1238.5" y1="489.7422" y2="489.7422"/><ellipse cx="987.5" cy="527.1738" fill="#84BE84" rx="3" ry="3" style="stroke:#038048;stroke-width:1.0;"/><text fill="#000000" font-family="sans-serif" font-size="14" lengthAdjust="spacing" textLength="237" x="996.5" y="531.4707">HighscoreItem(String name, int score)</text><line style="stroke:#181818;stroke-width:1.0;stroke-dasharray:1.0,2.0;" x1="977.5" x2="1071.5" y1="507.0527" y2="507.0527"/><text fill="#000000" font-family="sans-serif" font-size="14" lengthAdjust="spacing" textLength="73" x="1071.5" y="512.3496">Konstruktor</text><line style="stroke:#181818;stroke-width:1.0;stroke-dasharray:1.0,2.0;" x1="1144.5" x2="1238.5" y1="507.0527" y2="507.0527"/><ellipse cx="987.5" cy="568.416" fill="#84BE84" rx="3" ry="3" style="stroke:#038048;stroke-width:1.0;"/><text fill="#000000" font-family="sans-serif" font-size="14" lengthAdjust="spacing" textLength="107" x="996.5" y="572.7129">String getName()</text><ellipse cx="987.5" cy="587.0371" fill="#84BE84" rx="3" ry="3" style="stroke:#038048;stroke-width:1.0;"/><text fill="#000000" font-family="sans-serif" font-size="14" lengthAdjust="spacing" textLength="86" x="996.5" y="591.334">int getScore()</text><line style="stroke:#181818;stroke-width:1.0;stroke-dasharray:1.0,2.0;" x1="977.5" x2="1050" y1="548.2949" y2="548.2949"/><text fill="#000000" font-family="sans-serif" font-size="14" lengthAdjust="spacing" textLength="116" x="1050" y="553.5918">Getter-Funktionen</text><line style="stroke:#181818;stroke-width:1.0;stroke-dasharray:1.0,2.0;" x1="1166" x2="1238.5" y1="548.2949" y2="548.2949"/><ellipse cx="987.5" cy="628.2793" fill="#84BE84" rx="3" ry="3" style="stroke:#038048;stroke-width:1.0;"/><text fill="#000000" font-family="sans-serif" font-size="14" lengthAdjust="spacing" textLength="171" x="996.5" y="632.5762">void setName(String name)</text><ellipse cx="987.5" cy="646.9004" fill="#84BE84" rx="3" ry="3" style="stroke:#038048;stroke-width:1.0;"/><text fill="#000000" font-family="sans-serif" font-size="14" lengthAdjust="spacing" textLength="150" x="996.5" y="651.1973">void setScore(int score)</text><line style="stroke:#181818;stroke-width:1.0;stroke-dasharray:1.0,2.0;" x1="977.5" x2="1051" y1="608.1582" y2="608.1582"/><text fill="#000000" font-family="sans-serif" font-size="14" lengthAdjust="spacing" textLength="114" x="1051" y="613.4551">Setter-Funktionen</text><line style="stroke:#181818;stroke-width:1.0;stroke-dasharray:1.0,2.0;" x1="1165" x2="1238.5" y1="608.1582" y2="608.1582"/></g><!--reverse link Main to Quiz--><g id="link_Main_Quiz"><path codeLine="1" d="M313,89 C202.7,89 168.37,206.55 149.4,320.88 " fill="none" id="Main-backto-Quiz" style="stroke:#181818;stroke-width:1.0;"/><polygon fill="none" points="325,89,319,85,313,89,319,93,325,89" style="stroke:#181818;stroke-width:1.0;"/></g><!--reverse link Quiz to Question--><g id="link_Quiz_Question"><path codeLine="2" d="M281.8568,372.3486 C296.7368,374.6686 299.08,377.91 312.5,384.93 " fill="none" id="Quiz-backto-Question" style="stroke:#181818;stroke-width:1.0;"/><polygon fill="none" points="270,370.5,275.3122,375.3766,281.8568,372.3486,276.5446,367.4721,270,370.5" style="stroke:#181818;stroke-width:1.0;"/></g><!--reverse link Main to Highscore--><g id="link_Main_Highscore"><path codeLine="3" d="M608,70 C764.7,70 781.96,299.96 785.54,436.28 " fill="none" id="Main-backto-Highscore" style="stroke:#181818;stroke-width:1.0;"/><polygon fill="none" points="596,70,602,74,608,70,602,66,596,70" style="stroke:#181818;stroke-width:1.0;"/></g><!--reverse link Highscore to HighscoreItem--><g id="link_Highscore_HighscoreItem"><path codeLine="4" d="M945.7372,487.9976 C959.6472,490.9576 962.22,492.41 976.35,496.83 " fill="none" id="Highscore-backto-HighscoreItem" style="stroke:#181818;stroke-width:1.0;"/><polygon fill="#181818" points="934,485.5,939.0361,490.6612,945.7372,487.9976,940.7011,482.8364,934,485.5" style="stroke:#181818;stroke-width:1.0;"/></g><!--SRC=[ZLJ1Rjim3BthAtHqcYeVK1G3SadNRXdGPhTX1orMOZMnX4boswt8lu-I9KfEdAmNGoRv7ib7IaikrStDOoV_KiqOzGVYFzuch9DQWPscCrc6yCzoszYrDY9Wy8_WgGYvTwAbLqMKDv3rdbjBFHjz9-pTEkxa-h0KggCjVCWqcNAg1jEWCvJzsvUC52jdfDhIBM_5KjU2C4PciplXd31iqQaTT26KKBDPPaaGuUuYgfe0Q7KHzA9bJMq1EKhi6OwYM-WsXltuIRdPsiantxhHhru4AE0GDGez5XhDZU5_lahhRjDGFe44_ScRX-ei3DGJ90gdJ2ELmwdUgrgy4VPBwxtWYZxhdJ24-OXUxw3X5wsiCztEQUCxy-HZFG-bZg8bPf3umPEFw1iZawnzsA2YIVJokbxvigh2a3gfS6cJ9FqSUbh7ZKEK4cyEOScuaKhQ1dvPZsYwpMOlKfX5nrvpp6aNHhSFDh1467_9cEyw-l90Ouamr2XWAXOD1dRTpPLzzOF8AnCCOSZZ8udT7B5UarFMP1kmdfrVlY6bOjdwb8cp0wZ1DKVs_m_zN0EJ759cEksg22poZdQQff7V5nZ7u8q203uvPpL7H5Ki6YpaWAaQFeOIFbWfNFYIOueBXDPYlQQuV6FUavP2jhnbAZm0bw_riEu2U4qH-84r-GO8Nw_7mEyA5Reu_u0gSXRZx1cA4Wx_0000]--></g></svg>