<?xml version="1.0" encoding="us-ascii" standalone="no"?><svg xmlns="http://www.w3.org/2000/svg" xmlns:xlink="http://www.w3.org/1999/xlink" contentStyleType="text/css" height="360px" preserveAspectRatio="none" style="width:300px;height:360px;background:#FFFFFF;" version="1.1" viewBox="0 0 300 360" width="300px" zoomAndPan="magnify"><defs/><g><!--class Question--><g id="elem_Question"><rect codeLine="1" fill="#F1F1F1" height="339.3164" id="Question" rx="2.5" ry="2.5" style="stroke:#181818;stroke-width:0.5;" width="279" x="7" y="7"/><ellipse cx="113.75" cy="23" fill="#ADD1B2" rx="11" ry="11" style="stroke:#181818;stroke-width:1.0;"/><path d="M116.5156,18.875 Q116.6719,18.6563 116.8594,18.5469 Q117.0469,18.4375 117.2656,18.4375 Q117.6406,18.4375 117.875,18.7031 Q118.1094,18.9531 118.1094,19.5625 L118.1094,21.0156 Q118.1094,21.625 117.875,21.8906 Q117.6406,22.1563 117.2656,22.1563 Q116.9219,22.1563 116.7188,21.9531 Q116.5156,21.7656 116.4063,21.25 Q116.3594,20.8906 116.1719,20.7031 Q115.8438,20.3281 115.2344,20.1094 Q114.625,19.8906 114,19.8906 Q113.2344,19.8906 112.5938,20.2188 Q111.9688,20.5469 111.4688,21.2969 Q110.9844,22.0469 110.9844,23.0781 L110.9844,24.1719 Q110.9844,25.4063 111.875,26.2344 Q112.7656,27.0469 114.3594,27.0469 Q115.2969,27.0469 115.9531,26.7969 Q116.3438,26.6406 116.7656,26.2031 Q117.0313,25.9375 117.1719,25.8594 Q117.3281,25.7813 117.5313,25.7813 Q117.8594,25.7813 118.1094,26.0469 Q118.375,26.2969 118.375,26.6406 Q118.375,26.9844 118.0313,27.3906 Q117.5313,27.9688 116.7344,28.2969 Q115.6563,28.75 114.3594,28.75 Q112.8438,28.75 111.6406,28.125 Q110.6563,27.625 109.9688,26.5625 Q109.2813,25.4844 109.2813,24.2031 L109.2813,23.0469 Q109.2813,21.7188 109.8906,20.5781 Q110.5156,19.4219 111.6094,18.8125 Q112.7031,18.1875 113.9375,18.1875 Q114.6719,18.1875 115.3125,18.3594 Q115.9688,18.5156 116.5156,18.875 Z " fill="#000000"/><text fill="#000000" font-family="sans-serif" font-size="14" lengthAdjust="spacing" textLength="57" x="134.25" y="28.7969">Question</text><line style="stroke:#181818;stroke-width:0.5;" x1="8" x2="285" y1="39" y2="39"/><rect fill="none" height="6" style="stroke:#C82930;stroke-width:1.0;" width="6" x="15" y="50.8105"/><text fill="#000000" font-family="sans-serif" font-size="14" lengthAdjust="spacing" textLength="95" x="27" y="58.1074">String question</text><rect fill="none" height="6" style="stroke:#C82930;stroke-width:1.0;" width="6" x="15" y="69.4316"/><text fill="#000000" font-family="sans-serif" font-size="14" lengthAdjust="spacing" textLength="115" x="27" y="76.7285">String rightAnswer</text><rect fill="none" height="6" style="stroke:#C82930;stroke-width:1.0;" width="6" x="15" y="88.0527"/><text fill="#000000" font-family="sans-serif" font-size="14" lengthAdjust="spacing" textLength="116" x="27" y="95.3496">String[] answerList</text><line style="stroke:#181818;stroke-width:1.0;" x1="8" x2="285" y1="102.8633" y2="102.8633"/><ellipse cx="18" cy="140.2949" fill="#84BE84" rx="3" ry="3" style="stroke:#038048;stroke-width:1.0;"/><text fill="#000000" font-family="sans-serif" font-size="14" lengthAdjust="spacing" textLength="161" x="27" y="144.5918">Question(String question,</text><text fill="#000000" font-family="sans-serif" font-size="14" lengthAdjust="spacing" textLength="119" x="27" y="163.2129">String rightAnswer,</text><text fill="#000000" font-family="sans-serif" font-size="14" lengthAdjust="spacing" textLength="121" x="27" y="181.834">String[] answerList)</text><line style="stroke:#181818;stroke-width:1.0;stroke-dasharray:1.0,2.0;" x1="8" x2="110" y1="120.1738" y2="120.1738"/><text fill="#000000" font-family="sans-serif" font-size="14" lengthAdjust="spacing" textLength="73" x="110" y="125.4707">Konstruktor</text><line style="stroke:#181818;stroke-width:1.0;stroke-dasharray:1.0,2.0;" x1="183" x2="285" y1="120.1738" y2="120.1738"/><ellipse cx="18" cy="218.7793" fill="#84BE84" rx="3" ry="3" style="stroke:#038048;stroke-width:1.0;"/><text fill="#000000" font-family="sans-serif" font-size="14" lengthAdjust="spacing" textLength="128" x="27" y="223.0762">String getQuestion()</text><ellipse cx="18" cy="237.4004" fill="#84BE84" rx="3" ry="3" style="stroke:#038048;stroke-width:1.0;"/><text fill="#000000" font-family="sans-serif" font-size="14" lengthAdjust="spacing" textLength="150" x="27" y="241.6973">String getRightAnswer()</text><ellipse cx="18" cy="256.0215" fill="#84BE84" rx="3" ry="3" style="stroke:#038048;stroke-width:1.0;"/><text fill="#000000" font-family="sans-serif" font-size="14" lengthAdjust="spacing" textLength="147" x="27" y="260.3184">String[] getAnswerList()</text><line style="stroke:#181818;stroke-width:1.0;stroke-dasharray:1.0,2.0;" x1="8" x2="88.5" y1="198.6582" y2="198.6582"/><text fill="#000000" font-family="sans-serif" font-size="14" lengthAdjust="spacing" textLength="116" x="88.5" y="203.9551">Getter-Funktionen</text><line style="stroke:#181818;stroke-width:1.0;stroke-dasharray:1.0,2.0;" x1="204.5" x2="285" y1="198.6582" y2="198.6582"/><ellipse cx="18" cy="297.2637" fill="#84BE84" rx="3" ry="3" style="stroke:#038048;stroke-width:1.0;"/><text fill="#000000" font-family="sans-serif" font-size="14" lengthAdjust="spacing" textLength="211" x="27" y="301.5605">void setQuestion(String question)</text><ellipse cx="18" cy="315.8848" fill="#84BE84" rx="3" ry="3" style="stroke:#038048;stroke-width:1.0;"/><text fill="#000000" font-family="sans-serif" font-size="14" lengthAdjust="spacing" textLength="253" x="27" y="320.1816">void setRightAnswer(String rightAnswer)</text><ellipse cx="18" cy="334.5059" fill="#84BE84" rx="3" ry="3" style="stroke:#038048;stroke-width:1.0;"/><text fill="#000000" font-family="sans-serif" font-size="14" lengthAdjust="spacing" textLength="243" x="27" y="338.8027">void setAnswerList(String[] answerList)</text><line style="stroke:#181818;stroke-width:1.0;stroke-dasharray:1.0,2.0;" x1="8" x2="89.5" y1="277.1426" y2="277.1426"/><text fill="#000000" font-family="sans-serif" font-size="14" lengthAdjust="spacing" textLength="114" x="89.5" y="282.4395">Setter-Funktionen</text><line style="stroke:#181818;stroke-width:1.0;stroke-dasharray:1.0,2.0;" x1="203.5" x2="285" y1="277.1426" y2="277.1426"/></g><!--SRC=[RS-_3i8W40RmdQTWB55uXouwwA8TZKEZ14aDHExGmVZkWYb_RBj-T_UxV9Tx3q0FNW9gQ-YRy0wTDee-nYW7JgiRjWPUqgNiTARzBzXhGC8v4M9d3Q3p0red15abk9ceQp9NK_Qdic1k9Q9qVEFD46-bYV9uhoJc7wnEZmKkWq27KPlr9lBT4l-q-agXmYS5M5cfFyrRLOlLtyMcdoy0]--></g></svg>