<?xml version="1.0" encoding="us-ascii" standalone="no"?><svg xmlns="http://www.w3.org/2000/svg" xmlns:xlink="http://www.w3.org/1999/xlink" contentStyleType="text/css" height="442px" preserveAspectRatio="none" style="width:283px;height:442px;background:#FFFFFF;" version="1.1" viewBox="0 0 283 442" width="283px" zoomAndPan="magnify"><defs/><g><!--class Quiz--><g id="elem_Quiz"><rect codeLine="1" fill="#F1F1F1" height="421.8008" id="Quiz" rx="2.5" ry="2.5" style="stroke:#181818;stroke-width:0.5;" width="262" x="7" y="7"/><ellipse cx="119.75" cy="23" fill="#ADD1B2" rx="11" ry="11" style="stroke:#181818;stroke-width:1.0;"/><path d="M122.5156,18.875 Q122.6719,18.6563 122.8594,18.5469 Q123.0469,18.4375 123.2656,18.4375 Q123.6406,18.4375 123.875,18.7031 Q124.1094,18.9531 124.1094,19.5625 L124.1094,21.0156 Q124.1094,21.625 123.875,21.8906 Q123.6406,22.1563 123.2656,22.1563 Q122.9219,22.1563 122.7188,21.9531 Q122.5156,21.7656 122.4063,21.25 Q122.3594,20.8906 122.1719,20.7031 Q121.8438,20.3281 121.2344,20.1094 Q120.625,19.8906 120,19.8906 Q119.2344,19.8906 118.5938,20.2188 Q117.9688,20.5469 117.4688,21.2969 Q116.9844,22.0469 116.9844,23.0781 L116.9844,24.1719 Q116.9844,25.4063 117.875,26.2344 Q118.7656,27.0469 120.3594,27.0469 Q121.2969,27.0469 121.9531,26.7969 Q122.3438,26.6406 122.7656,26.2031 Q123.0313,25.9375 123.1719,25.8594 Q123.3281,25.7813 123.5313,25.7813 Q123.8594,25.7813 124.1094,26.0469 Q124.375,26.2969 124.375,26.6406 Q124.375,26.9844 124.0313,27.3906 Q123.5313,27.9688 122.7344,28.2969 Q121.6563,28.75 120.3594,28.75 Q118.8438,28.75 117.6406,28.125 Q116.6563,27.625 115.9688,26.5625 Q115.2813,25.4844 115.2813,24.2031 L115.2813,23.0469 Q115.2813,21.7188 115.8906,20.5781 Q116.5156,19.4219 117.6094,18.8125 Q118.7031,18.1875 119.9375,18.1875 Q120.6719,18.1875 121.3125,18.3594 Q121.9688,18.5156 122.5156,18.875 Z " fill="#000000"/><text fill="#000000" font-family="sans-serif" font-size="14" lengthAdjust="spacing" textLength="28" x="140.25" y="28.7969">Quiz</text><line style="stroke:#181818;stroke-width:0.5;" x1="8" x2="268" y1="39" y2="39"/><rect fill="none" height="6" style="stroke:#C82930;stroke-width:1.0;" width="6" x="15" y="50.8105"/><text fill="#000000" font-family="sans-serif" font-size="14" lengthAdjust="spacing" text-decoration="underline" textLength="209" x="27" y="58.1074">ArrayList&lt;Question&gt; questionList</text><ellipse cx="18" cy="72.4316" fill="none" rx="3" ry="3" style="stroke:#038048;stroke-width:1.0;"/><text fill="#000000" font-family="sans-serif" font-size="14" lengthAdjust="spacing" text-decoration="underline" textLength="139" x="27" y="76.7285">QuizFrame quizFrame</text><rect fill="none" height="6" style="stroke:#C82930;stroke-width:1.0;" width="6" x="15" y="88.0527"/><text fill="#000000" font-family="sans-serif" font-size="14" lengthAdjust="spacing" text-decoration="underline" textLength="109" x="27" y="95.3496">int QuestionIndex</text><rect fill="none" height="6" style="stroke:#C82930;stroke-width:1.0;" width="6" x="15" y="106.6738"/><text fill="#000000" font-family="sans-serif" font-size="14" lengthAdjust="spacing" textLength="86" x="27" y="113.9707">boolean joker</text><rect fill="none" height="6" style="stroke:#C82930;stroke-width:1.0;" width="6" x="15" y="125.2949"/><text fill="#000000" font-family="sans-serif" font-size="14" lengthAdjust="spacing" textLength="54" x="27" y="132.5918">int score</text><line style="stroke:#181818;stroke-width:1.0;" x1="8" x2="268" y1="140.1055" y2="140.1055"/><ellipse cx="18" cy="177.5371" fill="#84BE84" rx="3" ry="3" style="stroke:#038048;stroke-width:1.0;"/><text fill="#000000" font-family="sans-serif" font-size="14" lengthAdjust="spacing" textLength="149" x="27" y="181.834">Quiz(String gameMode)</text><line style="stroke:#181818;stroke-width:1.0;stroke-dasharray:1.0,2.0;" x1="8" x2="101.5" y1="157.416" y2="157.416"/><text fill="#000000" font-family="sans-serif" font-size="14" lengthAdjust="spacing" textLength="73" x="101.5" y="162.7129">Konstruktor</text><line style="stroke:#181818;stroke-width:1.0;stroke-dasharray:1.0,2.0;" x1="174.5" x2="268" y1="157.416" y2="157.416"/><ellipse cx="18" cy="218.7793" fill="#84BE84" rx="3" ry="3" style="stroke:#038048;stroke-width:1.0;"/><text fill="#000000" font-family="sans-serif" font-size="14" lengthAdjust="spacing" textLength="119" x="27" y="223.0762">boolean getJoker()</text><line style="stroke:#181818;stroke-width:1.0;stroke-dasharray:1.0,2.0;" x1="8" x2="80" y1="198.6582" y2="198.6582"/><text fill="#000000" font-family="sans-serif" font-size="14" lengthAdjust="spacing" textLength="116" x="80" y="203.9551">Getter-Funktionen</text><line style="stroke:#181818;stroke-width:1.0;stroke-dasharray:1.0,2.0;" x1="196" x2="268" y1="198.6582" y2="198.6582"/><ellipse cx="18" cy="260.0215" fill="#84BE84" rx="3" ry="3" style="stroke:#038048;stroke-width:1.0;"/><text fill="#000000" font-family="sans-serif" font-size="14" lengthAdjust="spacing" textLength="179" x="27" y="264.3184">void setJoker(boolean joker)</text><ellipse cx="18" cy="278.6426" fill="#84BE84" rx="3" ry="3" style="stroke:#038048;stroke-width:1.0;"/><text fill="#000000" font-family="sans-serif" font-size="14" lengthAdjust="spacing" textLength="101" x="27" y="282.9395">void addScore()</text><ellipse cx="18" cy="297.2637" fill="#84BE84" rx="3" ry="3" style="stroke:#038048;stroke-width:1.0;"/><text fill="#000000" font-family="sans-serif" font-size="14" lengthAdjust="spacing" textLength="236" x="27" y="301.5605">void addQuestion(Question question)</text><line style="stroke:#181818;stroke-width:1.0;stroke-dasharray:1.0,2.0;" x1="8" x2="81" y1="239.9004" y2="239.9004"/><text fill="#000000" font-family="sans-serif" font-size="14" lengthAdjust="spacing" textLength="114" x="81" y="245.1973">Setter-Funktionen</text><line style="stroke:#181818;stroke-width:1.0;stroke-dasharray:1.0,2.0;" x1="195" x2="268" y1="239.9004" y2="239.9004"/><line style="stroke:#181818;stroke-width:1.0;stroke-dasharray:1.0,2.0;" x1="8" x2="268" y1="309.0742" y2="309.0742"/><ellipse cx="18" cy="323.8848" fill="#84BE84" rx="3" ry="3" style="stroke:#038048;stroke-width:1.0;"/><text fill="#000000" font-family="sans-serif" font-size="14" lengthAdjust="spacing" textLength="68" x="27" y="328.1816">void start()</text><ellipse cx="18" cy="342.5059" fill="#84BE84" rx="3" ry="3" style="stroke:#038048;stroke-width:1.0;"/><text fill="#000000" font-family="sans-serif" font-size="14" lengthAdjust="spacing" textLength="123" x="27" y="346.8027">void nextQuestion()</text><ellipse cx="18" cy="361.127" fill="#84BE84" rx="3" ry="3" style="stroke:#038048;stroke-width:1.0;"/><text fill="#000000" font-family="sans-serif" font-size="14" lengthAdjust="spacing" textLength="73" x="27" y="365.4238">void finish()</text><rect fill="#F24D5C" height="6" style="stroke:#C82930;stroke-width:1.0;" width="6" x="15" y="376.748"/><text fill="#000000" font-family="sans-serif" font-size="14" lengthAdjust="spacing" textLength="146" x="27" y="384.0449">void shuffleQuestions()</text><rect fill="#F24D5C" height="6" style="stroke:#C82930;stroke-width:1.0;" width="6" x="15" y="395.3691"/><text fill="#000000" font-family="sans-serif" font-size="14" lengthAdjust="spacing" textLength="193" x="27" y="402.666">void loadQuestionsFromJson()</text><rect fill="#F24D5C" height="6" style="stroke:#C82930;stroke-width:1.0;" width="6" x="15" y="413.9902"/><text fill="#000000" font-family="sans-serif" font-size="14" lengthAdjust="spacing" textLength="180" x="27" y="421.2871">void saveQuestionsToJson()</text></g><!--SRC=[RP31JiCm38RlUOeSEqtf4w19N8eOS9Yw5mYDsuLsiR2TQJ3jtMaWwK3YvjZV_pb9DrbclOl-Kr-KkR1OyTtrdiX-F7kMkrq45ezXezzpbTfgNSYKRCWUOPxdwgRnGNGHF0O7PsLU4IUmGR_X2AHC8hX3caD6rVKJ1XQAeo3LjLedUTKA-J3eOJQ_e8FLZ3s0291fOXYJ6aA2Yta0sIPvbSZsF_A4tcaks9yRhVBKEjUcQrM_6kKbLIcMBqcRYbOioP8AS9ObLfgz3vuFyz7y90wnxoSe62-32Usoanl2uvQ_BJbcJxVC7lFi-WK0]--></g></svg>