<?xml version="1.0" encoding="us-ascii" standalone="no"?><svg xmlns="http://www.w3.org/2000/svg" xmlns:xlink="http://www.w3.org/1999/xlink" contentStyleType="text/css" height="386px" preserveAspectRatio="none" style="width:716px;height:386px;background:#FFFFFF;" version="1.1" viewBox="0 0 716 386" width="716px" zoomAndPan="magnify"><defs/><g><!--class Highscore--><g id="elem_Highscore"><rect codeLine="16" fill="#F1F1F1" height="48" id="Highscore" rx="2.5" ry="2.5" style="stroke:#181818;stroke-width:0.5;" width="95" x="528.5" y="115"/><ellipse cx="543.5" cy="131" fill="#ADD1B2" rx="11" ry="11" style="stroke:#181818;stroke-width:1.0;"/><path d="M546.2656,126.875 Q546.4219,126.6563 546.6094,126.5469 Q546.7969,126.4375 547.0156,126.4375 Q547.3906,126.4375 547.625,126.7031 Q547.8594,126.9531 547.8594,127.5625 L547.8594,129.0156 Q547.8594,129.625 547.625,129.8906 Q547.3906,130.1563 547.0156,130.1563 Q546.6719,130.1563 546.4688,129.9531 Q546.2656,129.7656 546.1563,129.25 Q546.1094,128.8906 545.9219,128.7031 Q545.5938,128.3281 544.9844,128.1094 Q544.375,127.8906 543.75,127.8906 Q542.9844,127.8906 542.3438,128.2188 Q541.7188,128.5469 541.2188,129.2969 Q540.7344,130.0469 540.7344,131.0781 L540.7344,132.1719 Q540.7344,133.4063 541.625,134.2344 Q542.5156,135.0469 544.1094,135.0469 Q545.0469,135.0469 545.7031,134.7969 Q546.0938,134.6406 546.5156,134.2031 Q546.7813,133.9375 546.9219,133.8594 Q547.0781,133.7813 547.2813,133.7813 Q547.6094,133.7813 547.8594,134.0469 Q548.125,134.2969 548.125,134.6406 Q548.125,134.9844 547.7813,135.3906 Q547.2813,135.9688 546.4844,136.2969 Q545.4063,136.75 544.1094,136.75 Q542.5938,136.75 541.3906,136.125 Q540.4063,135.625 539.7188,134.5625 Q539.0313,133.4844 539.0313,132.2031 L539.0313,131.0469 Q539.0313,129.7188 539.6406,128.5781 Q540.2656,127.4219 541.3594,126.8125 Q542.4531,126.1875 543.6875,126.1875 Q544.4219,126.1875 545.0625,126.3594 Q545.7188,126.5156 546.2656,126.875 Z " fill="#000000"/><text fill="#000000" font-family="sans-serif" font-size="14" lengthAdjust="spacing" textLength="63" x="557.5" y="136.7969">Highscore</text><line style="stroke:#181818;stroke-width:0.5;" x1="529.5" x2="622.5" y1="147" y2="147"/><line style="stroke:#181818;stroke-width:0.5;" x1="529.5" x2="622.5" y1="155" y2="155"/></g><!--class HighscoreItem--><g id="elem_HighscoreItem"><rect codeLine="17" fill="#F1F1F1" height="48" id="HighscoreItem" rx="2.5" ry="2.5" style="stroke:#181818;stroke-width:0.5;" width="121" x="588.5" y="223"/><ellipse cx="603.5" cy="239" fill="#ADD1B2" rx="11" ry="11" style="stroke:#181818;stroke-width:1.0;"/><path d="M606.2656,234.875 Q606.4219,234.6563 606.6094,234.5469 Q606.7969,234.4375 607.0156,234.4375 Q607.3906,234.4375 607.625,234.7031 Q607.8594,234.9531 607.8594,235.5625 L607.8594,237.0156 Q607.8594,237.625 607.625,237.8906 Q607.3906,238.1563 607.0156,238.1563 Q606.6719,238.1563 606.4688,237.9531 Q606.2656,237.7656 606.1563,237.25 Q606.1094,236.8906 605.9219,236.7031 Q605.5938,236.3281 604.9844,236.1094 Q604.375,235.8906 603.75,235.8906 Q602.9844,235.8906 602.3438,236.2188 Q601.7188,236.5469 601.2188,237.2969 Q600.7344,238.0469 600.7344,239.0781 L600.7344,240.1719 Q600.7344,241.4063 601.625,242.2344 Q602.5156,243.0469 604.1094,243.0469 Q605.0469,243.0469 605.7031,242.7969 Q606.0938,242.6406 606.5156,242.2031 Q606.7813,241.9375 606.9219,241.8594 Q607.0781,241.7813 607.2813,241.7813 Q607.6094,241.7813 607.8594,242.0469 Q608.125,242.2969 608.125,242.6406 Q608.125,242.9844 607.7813,243.3906 Q607.2813,243.9688 606.4844,244.2969 Q605.4063,244.75 604.1094,244.75 Q602.5938,244.75 601.3906,244.125 Q600.4063,243.625 599.7188,242.5625 Q599.0313,241.4844 599.0313,240.2031 L599.0313,239.0469 Q599.0313,237.7188 599.6406,236.5781 Q600.2656,235.4219 601.3594,234.8125 Q602.4531,234.1875 603.6875,234.1875 Q604.4219,234.1875 605.0625,234.3594 Q605.7188,234.5156 606.2656,234.875 Z " fill="#000000"/><text fill="#000000" font-family="sans-serif" font-size="14" lengthAdjust="spacing" textLength="89" x="617.5" y="244.7969">HighscoreItem</text><line style="stroke:#181818;stroke-width:0.5;" x1="589.5" x2="708.5" y1="255" y2="255"/><line style="stroke:#181818;stroke-width:0.5;" x1="589.5" x2="708.5" y1="263" y2="263"/></g><!--class Quiz--><g id="elem_Quiz"><rect codeLine="20" fill="#F1F1F1" height="48" id="Quiz" rx="2.5" ry="2.5" style="stroke:#181818;stroke-width:0.5;" width="60" x="357" y="223"/><ellipse cx="372" cy="239" fill="#ADD1B2" rx="11" ry="11" style="stroke:#181818;stroke-width:1.0;"/><path d="M374.7656,234.875 Q374.9219,234.6563 375.1094,234.5469 Q375.2969,234.4375 375.5156,234.4375 Q375.8906,234.4375 376.125,234.7031 Q376.3594,234.9531 376.3594,235.5625 L376.3594,237.0156 Q376.3594,237.625 376.125,237.8906 Q375.8906,238.1563 375.5156,238.1563 Q375.1719,238.1563 374.9688,237.9531 Q374.7656,237.7656 374.6563,237.25 Q374.6094,236.8906 374.4219,236.7031 Q374.0938,236.3281 373.4844,236.1094 Q372.875,235.8906 372.25,235.8906 Q371.4844,235.8906 370.8438,236.2188 Q370.2188,236.5469 369.7188,237.2969 Q369.2344,238.0469 369.2344,239.0781 L369.2344,240.1719 Q369.2344,241.4063 370.125,242.2344 Q371.0156,243.0469 372.6094,243.0469 Q373.5469,243.0469 374.2031,242.7969 Q374.5938,242.6406 375.0156,242.2031 Q375.2813,241.9375 375.4219,241.8594 Q375.5781,241.7813 375.7813,241.7813 Q376.1094,241.7813 376.3594,242.0469 Q376.625,242.2969 376.625,242.6406 Q376.625,242.9844 376.2813,243.3906 Q375.7813,243.9688 374.9844,244.2969 Q373.9063,244.75 372.6094,244.75 Q371.0938,244.75 369.8906,244.125 Q368.9063,243.625 368.2188,242.5625 Q367.5313,241.4844 367.5313,240.2031 L367.5313,239.0469 Q367.5313,237.7188 368.1406,236.5781 Q368.7656,235.4219 369.8594,234.8125 Q370.9531,234.1875 372.1875,234.1875 Q372.9219,234.1875 373.5625,234.3594 Q374.2188,234.5156 374.7656,234.875 Z " fill="#000000"/><text fill="#000000" font-family="sans-serif" font-size="14" lengthAdjust="spacing" textLength="28" x="386" y="244.7969">Quiz</text><line style="stroke:#181818;stroke-width:0.5;" x1="358" x2="416" y1="255" y2="255"/><line style="stroke:#181818;stroke-width:0.5;" x1="358" x2="416" y1="263" y2="263"/></g><!--class QuizFrame--><g id="elem_QuizFrame"><rect codeLine="21" fill="#F1F1F1" height="48" id="QuizFrame" rx="2.5" ry="2.5" style="stroke:#181818;stroke-width:0.5;" width="101" x="452.5" y="223"/><ellipse cx="467.5" cy="239" fill="#ADD1B2" rx="11" ry="11" style="stroke:#181818;stroke-width:1.0;"/><path d="M470.2656,234.875 Q470.4219,234.6563 470.6094,234.5469 Q470.7969,234.4375 471.0156,234.4375 Q471.3906,234.4375 471.625,234.7031 Q471.8594,234.9531 471.8594,235.5625 L471.8594,237.0156 Q471.8594,237.625 471.625,237.8906 Q471.3906,238.1563 471.0156,238.1563 Q470.6719,238.1563 470.4688,237.9531 Q470.2656,237.7656 470.1563,237.25 Q470.1094,236.8906 469.9219,236.7031 Q469.5938,236.3281 468.9844,236.1094 Q468.375,235.8906 467.75,235.8906 Q466.9844,235.8906 466.3438,236.2188 Q465.7188,236.5469 465.2188,237.2969 Q464.7344,238.0469 464.7344,239.0781 L464.7344,240.1719 Q464.7344,241.4063 465.625,242.2344 Q466.5156,243.0469 468.1094,243.0469 Q469.0469,243.0469 469.7031,242.7969 Q470.0938,242.6406 470.5156,242.2031 Q470.7813,241.9375 470.9219,241.8594 Q471.0781,241.7813 471.2813,241.7813 Q471.6094,241.7813 471.8594,242.0469 Q472.125,242.2969 472.125,242.6406 Q472.125,242.9844 471.7813,243.3906 Q471.2813,243.9688 470.4844,244.2969 Q469.4063,244.75 468.1094,244.75 Q466.5938,244.75 465.3906,244.125 Q464.4063,243.625 463.7188,242.5625 Q463.0313,241.4844 463.0313,240.2031 L463.0313,239.0469 Q463.0313,237.7188 463.6406,236.5781 Q464.2656,235.4219 465.3594,234.8125 Q466.4531,234.1875 467.6875,234.1875 Q468.4219,234.1875 469.0625,234.3594 Q469.7188,234.5156 470.2656,234.875 Z " fill="#000000"/><text fill="#000000" font-family="sans-serif" font-size="14" lengthAdjust="spacing" textLength="69" x="481.5" y="244.7969">QuizFrame</text><line style="stroke:#181818;stroke-width:0.5;" x1="453.5" x2="552.5" y1="255" y2="255"/><line style="stroke:#181818;stroke-width:0.5;" x1="453.5" x2="552.5" y1="263" y2="263"/></g><!--class Question--><g id="elem_Question"><rect codeLine="15" fill="#F1F1F1" height="48" id="Question" rx="2.5" ry="2.5" style="stroke:#181818;stroke-width:0.5;" width="89" x="400.5" y="331"/><ellipse cx="415.5" cy="347" fill="#ADD1B2" rx="11" ry="11" style="stroke:#181818;stroke-width:1.0;"/><path d="M418.2656,342.875 Q418.4219,342.6563 418.6094,342.5469 Q418.7969,342.4375 419.0156,342.4375 Q419.3906,342.4375 419.625,342.7031 Q419.8594,342.9531 419.8594,343.5625 L419.8594,345.0156 Q419.8594,345.625 419.625,345.8906 Q419.3906,346.1563 419.0156,346.1563 Q418.6719,346.1563 418.4688,345.9531 Q418.2656,345.7656 418.1563,345.25 Q418.1094,344.8906 417.9219,344.7031 Q417.5938,344.3281 416.9844,344.1094 Q416.375,343.8906 415.75,343.8906 Q414.9844,343.8906 414.3438,344.2188 Q413.7188,344.5469 413.2188,345.2969 Q412.7344,346.0469 412.7344,347.0781 L412.7344,348.1719 Q412.7344,349.4063 413.625,350.2344 Q414.5156,351.0469 416.1094,351.0469 Q417.0469,351.0469 417.7031,350.7969 Q418.0938,350.6406 418.5156,350.2031 Q418.7813,349.9375 418.9219,349.8594 Q419.0781,349.7813 419.2813,349.7813 Q419.6094,349.7813 419.8594,350.0469 Q420.125,350.2969 420.125,350.6406 Q420.125,350.9844 419.7813,351.3906 Q419.2813,351.9688 418.4844,352.2969 Q417.4063,352.75 416.1094,352.75 Q414.5938,352.75 413.3906,352.125 Q412.4063,351.625 411.7188,350.5625 Q411.0313,349.4844 411.0313,348.2031 L411.0313,347.0469 Q411.0313,345.7188 411.6406,344.5781 Q412.2656,343.4219 413.3594,342.8125 Q414.4531,342.1875 415.6875,342.1875 Q416.4219,342.1875 417.0625,342.3594 Q417.7188,342.5156 418.2656,342.875 Z " fill="#000000"/><text fill="#000000" font-family="sans-serif" font-size="14" lengthAdjust="spacing" textLength="57" x="429.5" y="352.7969">Question</text><line style="stroke:#181818;stroke-width:0.5;" x1="401.5" x2="488.5" y1="363" y2="363"/><line style="stroke:#181818;stroke-width:0.5;" x1="401.5" x2="488.5" y1="371" y2="371"/></g><!--class Main--><g id="elem_Main"><rect codeLine="13" fill="#F1F1F1" height="48" id="Main" rx="2.5" ry="2.5" style="stroke:#181818;stroke-width:0.5;" width="62" x="414" y="7"/><ellipse cx="429" cy="23" fill="#ADD1B2" rx="11" ry="11" style="stroke:#181818;stroke-width:1.0;"/><path d="M431.7656,18.875 Q431.9219,18.6563 432.1094,18.5469 Q432.2969,18.4375 432.5156,18.4375 Q432.8906,18.4375 433.125,18.7031 Q433.3594,18.9531 433.3594,19.5625 L433.3594,21.0156 Q433.3594,21.625 433.125,21.8906 Q432.8906,22.1563 432.5156,22.1563 Q432.1719,22.1563 431.9688,21.9531 Q431.7656,21.7656 431.6563,21.25 Q431.6094,20.8906 431.4219,20.7031 Q431.0938,20.3281 430.4844,20.1094 Q429.875,19.8906 429.25,19.8906 Q428.4844,19.8906 427.8438,20.2188 Q427.2188,20.5469 426.7188,21.2969 Q426.2344,22.0469 426.2344,23.0781 L426.2344,24.1719 Q426.2344,25.4063 427.125,26.2344 Q428.0156,27.0469 429.6094,27.0469 Q430.5469,27.0469 431.2031,26.7969 Q431.5938,26.6406 432.0156,26.2031 Q432.2813,25.9375 432.4219,25.8594 Q432.5781,25.7813 432.7813,25.7813 Q433.1094,25.7813 433.3594,26.0469 Q433.625,26.2969 433.625,26.6406 Q433.625,26.9844 433.2813,27.3906 Q432.7813,27.9688 431.9844,28.2969 Q430.9063,28.75 429.6094,28.75 Q428.0938,28.75 426.8906,28.125 Q425.9063,27.625 425.2188,26.5625 Q424.5313,25.4844 424.5313,24.2031 L424.5313,23.0469 Q424.5313,21.7188 425.1406,20.5781 Q425.7656,19.4219 426.8594,18.8125 Q427.9531,18.1875 429.1875,18.1875 Q429.9219,18.1875 430.5625,18.3594 Q431.2188,18.5156 431.7656,18.875 Z " fill="#000000"/><text fill="#000000" font-family="sans-serif" font-size="14" lengthAdjust="spacing" textLength="30" x="443" y="28.7969">Main</text><line style="stroke:#181818;stroke-width:0.5;" x1="415" x2="475" y1="39" y2="39"/><line style="stroke:#181818;stroke-width:0.5;" x1="415" x2="475" y1="47" y2="47"/></g><!--class Menu--><g id="elem_Menu"><rect codeLine="14" fill="#F1F1F1" height="48" id="Menu" rx="2.5" ry="2.5" style="stroke:#181818;stroke-width:0.5;" width="67" x="353.5" y="115"/><ellipse cx="368.5" cy="131" fill="#ADD1B2" rx="11" ry="11" style="stroke:#181818;stroke-width:1.0;"/><path d="M371.2656,126.875 Q371.4219,126.6563 371.6094,126.5469 Q371.7969,126.4375 372.0156,126.4375 Q372.3906,126.4375 372.625,126.7031 Q372.8594,126.9531 372.8594,127.5625 L372.8594,129.0156 Q372.8594,129.625 372.625,129.8906 Q372.3906,130.1563 372.0156,130.1563 Q371.6719,130.1563 371.4688,129.9531 Q371.2656,129.7656 371.1563,129.25 Q371.1094,128.8906 370.9219,128.7031 Q370.5938,128.3281 369.9844,128.1094 Q369.375,127.8906 368.75,127.8906 Q367.9844,127.8906 367.3438,128.2188 Q366.7188,128.5469 366.2188,129.2969 Q365.7344,130.0469 365.7344,131.0781 L365.7344,132.1719 Q365.7344,133.4063 366.625,134.2344 Q367.5156,135.0469 369.1094,135.0469 Q370.0469,135.0469 370.7031,134.7969 Q371.0938,134.6406 371.5156,134.2031 Q371.7813,133.9375 371.9219,133.8594 Q372.0781,133.7813 372.2813,133.7813 Q372.6094,133.7813 372.8594,134.0469 Q373.125,134.2969 373.125,134.6406 Q373.125,134.9844 372.7813,135.3906 Q372.2813,135.9688 371.4844,136.2969 Q370.4063,136.75 369.1094,136.75 Q367.5938,136.75 366.3906,136.125 Q365.4063,135.625 364.7188,134.5625 Q364.0313,133.4844 364.0313,132.2031 L364.0313,131.0469 Q364.0313,129.7188 364.6406,128.5781 Q365.2656,127.4219 366.3594,126.8125 Q367.4531,126.1875 368.6875,126.1875 Q369.4219,126.1875 370.0625,126.3594 Q370.7188,126.5156 371.2656,126.875 Z " fill="#000000"/><text fill="#000000" font-family="sans-serif" font-size="14" lengthAdjust="spacing" textLength="35" x="382.5" y="136.7969">Menu</text><line style="stroke:#181818;stroke-width:0.5;" x1="354.5" x2="419.5" y1="147" y2="147"/><line style="stroke:#181818;stroke-width:0.5;" x1="354.5" x2="419.5" y1="155" y2="155"/></g><!--class SettingsFrame--><g id="elem_SettingsFrame"><rect codeLine="22" fill="#F1F1F1" height="48" id="SettingsFrame" rx="2.5" ry="2.5" style="stroke:#181818;stroke-width:0.5;" width="124" x="7" y="223"/><ellipse cx="22" cy="239" fill="#ADD1B2" rx="11" ry="11" style="stroke:#181818;stroke-width:1.0;"/><path d="M24.7656,234.875 Q24.9219,234.6563 25.1094,234.5469 Q25.2969,234.4375 25.5156,234.4375 Q25.8906,234.4375 26.125,234.7031 Q26.3594,234.9531 26.3594,235.5625 L26.3594,237.0156 Q26.3594,237.625 26.125,237.8906 Q25.8906,238.1563 25.5156,238.1563 Q25.1719,238.1563 24.9688,237.9531 Q24.7656,237.7656 24.6563,237.25 Q24.6094,236.8906 24.4219,236.7031 Q24.0938,236.3281 23.4844,236.1094 Q22.875,235.8906 22.25,235.8906 Q21.4844,235.8906 20.8438,236.2188 Q20.2188,236.5469 19.7188,237.2969 Q19.2344,238.0469 19.2344,239.0781 L19.2344,240.1719 Q19.2344,241.4063 20.125,242.2344 Q21.0156,243.0469 22.6094,243.0469 Q23.5469,243.0469 24.2031,242.7969 Q24.5938,242.6406 25.0156,242.2031 Q25.2813,241.9375 25.4219,241.8594 Q25.5781,241.7813 25.7813,241.7813 Q26.1094,241.7813 26.3594,242.0469 Q26.625,242.2969 26.625,242.6406 Q26.625,242.9844 26.2813,243.3906 Q25.7813,243.9688 24.9844,244.2969 Q23.9063,244.75 22.6094,244.75 Q21.0938,244.75 19.8906,244.125 Q18.9063,243.625 18.2188,242.5625 Q17.5313,241.4844 17.5313,240.2031 L17.5313,239.0469 Q17.5313,237.7188 18.1406,236.5781 Q18.7656,235.4219 19.8594,234.8125 Q20.9531,234.1875 22.1875,234.1875 Q22.9219,234.1875 23.5625,234.3594 Q24.2188,234.5156 24.7656,234.875 Z " fill="#000000"/><text fill="#000000" font-family="sans-serif" font-size="14" lengthAdjust="spacing" textLength="92" x="36" y="244.7969">SettingsFrame</text><line style="stroke:#181818;stroke-width:0.5;" x1="8" x2="130" y1="255" y2="255"/><line style="stroke:#181818;stroke-width:0.5;" x1="8" x2="130" y1="263" y2="263"/></g><!--class NewQuestionFrame--><g id="elem_NewQuestionFrame"><rect codeLine="19" fill="#F1F1F1" height="48" id="NewQuestionFrame" rx="2.5" ry="2.5" style="stroke:#181818;stroke-width:0.5;" width="156" x="166" y="223"/><ellipse cx="181" cy="239" fill="#ADD1B2" rx="11" ry="11" style="stroke:#181818;stroke-width:1.0;"/><path d="M183.7656,234.875 Q183.9219,234.6563 184.1094,234.5469 Q184.2969,234.4375 184.5156,234.4375 Q184.8906,234.4375 185.125,234.7031 Q185.3594,234.9531 185.3594,235.5625 L185.3594,237.0156 Q185.3594,237.625 185.125,237.8906 Q184.8906,238.1563 184.5156,238.1563 Q184.1719,238.1563 183.9688,237.9531 Q183.7656,237.7656 183.6563,237.25 Q183.6094,236.8906 183.4219,236.7031 Q183.0938,236.3281 182.4844,236.1094 Q181.875,235.8906 181.25,235.8906 Q180.4844,235.8906 179.8438,236.2188 Q179.2188,236.5469 178.7188,237.2969 Q178.2344,238.0469 178.2344,239.0781 L178.2344,240.1719 Q178.2344,241.4063 179.125,242.2344 Q180.0156,243.0469 181.6094,243.0469 Q182.5469,243.0469 183.2031,242.7969 Q183.5938,242.6406 184.0156,242.2031 Q184.2813,241.9375 184.4219,241.8594 Q184.5781,241.7813 184.7813,241.7813 Q185.1094,241.7813 185.3594,242.0469 Q185.625,242.2969 185.625,242.6406 Q185.625,242.9844 185.2813,243.3906 Q184.7813,243.9688 183.9844,244.2969 Q182.9063,244.75 181.6094,244.75 Q180.0938,244.75 178.8906,244.125 Q177.9063,243.625 177.2188,242.5625 Q176.5313,241.4844 176.5313,240.2031 L176.5313,239.0469 Q176.5313,237.7188 177.1406,236.5781 Q177.7656,235.4219 178.8594,234.8125 Q179.9531,234.1875 181.1875,234.1875 Q181.9219,234.1875 182.5625,234.3594 Q183.2188,234.5156 183.7656,234.875 Z " fill="#000000"/><text fill="#000000" font-family="sans-serif" font-size="14" lengthAdjust="spacing" textLength="124" x="195" y="244.7969">NewQuestionFrame</text><line style="stroke:#181818;stroke-width:0.5;" x1="167" x2="321" y1="255" y2="255"/><line style="stroke:#181818;stroke-width:0.5;" x1="167" x2="321" y1="263" y2="263"/></g><!--reverse link Highscore to HighscoreItem--><g id="link_Highscore_HighscoreItem"><path codeLine="2" d="M598.6455,172.8836 C610.8055,190.5436 620.72,204.94 632.94,222.68 " fill="none" id="Highscore-backto-HighscoreItem" style="stroke:#181818;stroke-width:1.0;"/><polygon fill="#181818" points="591.84,163,591.9482,170.2103,598.6455,172.8836,598.5373,165.6733,591.84,163" style="stroke:#181818;stroke-width:1.0;"/></g><!--reverse link Quiz to QuizFrame--><g id="link_Quiz_QuizFrame"><path codeLine="3" d="M429.36,247 C441.07,247 440.78,247 452.49,247 " fill="none" id="Quiz-backto-QuizFrame" style="stroke:#181818;stroke-width:1.0;"/><polygon fill="#181818" points="417.36,247,423.36,251,429.36,247,423.36,243,417.36,247" style="stroke:#181818;stroke-width:1.0;"/></g><!--reverse link Quiz to Question--><g id="link_Quiz_Question"><path codeLine="4" d="M405.3488,281.5279 C415.0088,299.1879 422.53,312.94 432.24,330.68 " fill="none" id="Quiz-backto-Question" style="stroke:#181818;stroke-width:1.0;"/><polygon fill="none" points="399.59,271,398.9601,278.1835,405.3488,281.5279,405.9787,274.3444,399.59,271" style="stroke:#181818;stroke-width:1.0;"/></g><!--reverse link QuizFrame to Question--><g id="link_QuizFrame_Question"><path codeLine="5" d="M484.6512,281.5279 C474.9912,299.1879 467.47,312.94 457.76,330.68 " fill="none" id="QuizFrame-backto-Question" style="stroke:#181818;stroke-width:1.0;"/><polygon fill="none" points="490.41,271,484.0213,274.3444,484.6512,281.5279,491.0399,278.1835,490.41,271" style="stroke:#181818;stroke-width:1.0;"/></g><!--reverse link Main to Menu--><g id="link_Main_Menu"><path codeLine="6" d="M426.6512,65.5279 C416.9912,83.1879 409.47,96.94 399.76,114.68 " fill="none" id="Main-backto-Menu" style="stroke:#181818;stroke-width:1.0;"/><polygon fill="none" points="432.41,55,426.0213,58.3444,426.6512,65.5279,433.0399,62.1835,432.41,55" style="stroke:#181818;stroke-width:1.0;"/></g><!--reverse link Menu to SettingsFrame--><g id="link_Menu_SettingsFrame"><path codeLine="7" d="M341.8862,155.036 C289.1362,172.626 197.68,203.11 131.23,225.26 " fill="none" id="Menu-backto-SettingsFrame" style="stroke:#181818;stroke-width:1.0;"/><polygon fill="#181818" points="353.27,151.24,346.3128,149.3434,341.8862,155.036,348.8435,156.9326,353.27,151.24" style="stroke:#181818;stroke-width:1.0;"/></g><!--reverse link SettingsFrame to NewQuestionFrame--><g id="link_SettingsFrame_NewQuestionFrame"><path codeLine="8" d="M143.21,247 C154.66,247 154.12,247 165.57,247 " fill="none" id="SettingsFrame-backto-NewQuestionFrame" style="stroke:#181818;stroke-width:1.0;"/><polygon fill="#181818" points="131.21,247,137.21,251,143.21,247,137.21,243,131.21,247" style="stroke:#181818;stroke-width:1.0;"/></g><!--reverse link Menu to Quiz--><g id="link_Menu_Quiz"><path codeLine="9" d="M387,175 C387,192.66 387,204.94 387,222.68 " fill="none" id="Menu-backto-Quiz" style="stroke:#181818;stroke-width:1.0;"/><polygon fill="none" points="387,163,383,169,387,175,391,169,387,163" style="stroke:#181818;stroke-width:1.0;"/></g><!--reverse link Main to Highscore--><g id="link_Main_Highscore"><path codeLine="10" d="M482.7577,62.5494 C504.5777,80.2094 525.26,96.94 547.18,114.68 " fill="none" id="Main-backto-Highscore" style="stroke:#181818;stroke-width:1.0;"/><polygon fill="none" points="473.43,55,475.5774,61.8839,482.7577,62.5494,480.6103,55.6655,473.43,55" style="stroke:#181818;stroke-width:1.0;"/></g><!--reverse link NewQuestionFrame to Quiz--><g id="link_NewQuestionFrame_Quiz"><path codeLine="11" d="M334.2,247 C345.76,247 345.32,247 356.88,247 " fill="none" id="NewQuestionFrame-backto-Quiz" style="stroke:#181818;stroke-width:1.0;"/><polygon fill="none" points="322.2,247,328.2,251,334.2,247,328.2,243,322.2,247" style="stroke:#181818;stroke-width:1.0;"/></g><!--SRC=[PP112iCW44NtSmftXOBDlWSexIA5qXD8EYH2r10d12gvUwEYgSb6-Sy_VyOvTKI3lLRLq0jDa-elZL5Lqmjh-KUATXGAxhBjR6D6P6VEMLOFGWMlINvNpFnzMyqOYU4UeILfDEIt4jT2wa1gr1Fu8-I_aKZgriQqGlb6JvnJGdI4GXCds3BpbB0lo5u8lsIXn2r9-RIiKk56jbqSaLy8Sv3ueV5VxBgYGkqCvQ_TyWC0]--></g></svg>